<?xml version="1.0" standalone="no"?>
<!DOCTYPE svg PUBLIC "-//W3C//DTD SVG 20010904//EN"
 "http://www.w3.org/TR/2001/REC-SVG-20010904/DTD/svg10.dtd">
<svg version="1.0" xmlns="http://www.w3.org/2000/svg"
 width="1024.000000pt" height="1024.000000pt" viewBox="0 0 1024.000000 1024.000000"
 preserveAspectRatio="xMidYMid meet">

<g transform="translate(0.000000,1024.000000) scale(0.100000,-0.100000)"
fill="#000000" stroke="none">
<path d="M2571 8310 c-194 -27 -374 -120 -519 -270 -143 -147 -226 -304 -263
-500 -16 -83 -14 -3109 2 -3235 15 -115 35 -185 79 -278 138 -292 378 -489
657 -543 63 -12 315 -14 1550 -14 l1476 0 36 -27 c54 -41 884 -748 1332 -1134
75 -65 152 -127 170 -138 91 -55 208 -27 257 62 15 29 17 88 22 632 l5 600
145 6 c240 9 412 73 601 225 176 140 325 401 343 601 11 123 17 3016 6 3130
-24 253 -119 454 -291 618 -152 144 -317 226 -509 253 -95 14 -5005 25 -5099
12z m5140 -387 c142 -49 268 -162 339 -306 22 -45 45 -107 50 -137 7 -35 10
-599 10 -1581 0 -1470 -1 -1529 -19 -1600 -26 -98 -52 -154 -105 -227 -78
-106 -194 -182 -338 -222 -61 -17 -103 -20 -258 -20 -102 0 -201 -5 -221 -10
-50 -14 -99 -49 -126 -89 l-23 -34 0 -498 c0 -332 -3 -500 -10 -504 -14 -9
-248 190 -1095 929 -98 86 -200 166 -225 179 -45 22 -49 22 -592 25 -436 2
-547 5 -551 16 -3 7 -8 552 -12 1212 -6 914 -10 1206 -20 1229 -7 17 -106 208
-220 425 -114 217 -243 463 -287 547 -89 171 -118 203 -179 203 -81 0 -74 11
-366 -542 -150 -282 -288 -547 -307 -588 l-36 -74 0 -1213 0 -1213 -224 0
c-261 0 -345 12 -452 65 -131 64 -231 204 -286 401 l-23 79 -3 1520 c-2 1085
0 1538 8 1584 33 189 137 336 293 415 118 59 -65 55 2687 53 l2525 -2 66 -22z
m-3676 -1390 c107 -218 166 -353 159 -364 -7 -11 -714 -12 -732 -1 -10 7 -10
16 2 48 16 45 222 463 238 481 7 9 46 13 128 13 l117 0 88 -177z m-78 -713
c10 -20 12 -237 10 -1005 l-2 -980 -132 -3 -133 -3 0 1004 c0 552 3 1007 7
1011 4 3 59 5 122 4 112 -3 116 -4 128 -28z"/>
<path d="M5206 7062 c-33 -11 -59 -30 -80 -55 -28 -35 -31 -46 -31 -106 0 -85
24 -134 80 -164 l40 -22 1083 -3 c742 -2 1096 1 1123 8 51 14 105 62 120 107
27 82 -13 192 -83 230 -31 16 -108 17 -1118 20 -996 2 -1089 0 -1134 -15z"/>
<path d="M5162 6130 c-54 -39 -76 -82 -76 -150 -1 -75 27 -127 84 -157 l44
-24 936 3 935 3 45 25 c63 35 90 80 90 147 0 70 -21 114 -72 150 l-41 28 -952
3 -952 2 -41 -30z"/>
<path d="M5215 5251 c-80 -20 -116 -70 -122 -169 -4 -58 -2 -71 19 -102 13
-19 39 -45 57 -57 l34 -23 716 0 c803 0 752 -5 814 73 26 31 30 45 30 100 1
84 -21 124 -88 157 l-50 25 -690 2 c-379 1 -703 -2 -720 -6z"/>
</g>
</svg>
